# xmcd
#
# Track frame offsets:
#	150
#	15988
#	31389
#	50723
#	66118
#	76170
#	89281
#	101685
#	117903
#	138072
#	152483
#	159890
#	177606
#
# Disc length: 2691 seconds
#
# Revision: 0
# Processed by: cddbd v1.5.2PL0 Copyright (c) Steve Scherf et al.
# Submitted via: EZCDAudioConverter 1.2.2.1
#
DISCID=970a810d
DTITLE=Chicken Shack - 100 Ton Chicken
DYEAR=1969
DGENRE=Blues
TTITLE0=The Road Of Love
TTITLE1=Look Ma, I'm Cryin'
TTITLE2=Evelyn
TTITLE3=Reconsider Baby
TTITLE4=Weekend Love
TTITLE5=Midnight Hour
TTITLE6=Tears In The Wind
TTITLE7=Horse and Cart
TTITLE8=The Way It Is
TTITLE9=Still Worried About My Woman
TTITLE10=Anji
TTITLE11=The Things You Put Me Through
TTITLE12=Night Life
EXTD=
EXTT0=
EXTT1=
EXTT2=
EXTT3=
EXTT4=
EXTT5=
EXTT6=
EXTT7=
EXTT8=
EXTT9=
EXTT10=
EXTT11=
EXTT12=
PLAYORDER=
